<svg fill="#ffffff" width="16px" height="16px" viewBox="0 0 24 24" id="sound-mute-alt" data-name="Flat Color" xmlns="http://www.w3.org/2000/svg" class="icon flat-color">
<g id="SVGRepo_bgCarrier" stroke-width="0"/>
<g id="SVGRepo_tracerCarrier" stroke-linecap="round" stroke-linejoin="round"/>
<g id="SVGRepo_iconCarrier">
<path id="secondary" d="M19.91,12l1.8-1.79a1,1,0,0,0-1.42-1.42l-1.79,1.8-1.79-1.8a1,1,0,0,0-1.42,1.42L17.09,12l-1.8,1.79a1,1,0,0,0,0,1.42,1,1,0,0,0,1.42,0l1.79-1.8,1.79,1.8a1,1,0,0,0,1.42,0,1,1,0,0,0,0-1.42Z" style="fill: #2ca9bc;"/>
<path id="primary" d="M11.38,4.08a1,1,0,0,0-1.09.21L6.59,8H4a2,2,0,0,0-2,2v4a2,2,0,0,0,2,2H6.59l3.7,3.71A1,1,0,0,0,11,20a.84.84,0,0,0,.38-.08A1,1,0,0,0,12,19V5A1,1,0,0,0,11.38,4.08Z" style="fill: #fff;"/>
</g>
</svg>